Coordinates
version=1
nRows=19
nColumns=38
inDegrees=no

Units are S.I. units (second, meters, Newtons, ...)
If the header above contains a line with 'inDegrees', this indicates whether rotational values are in degrees (yes) or radians (no).

endheader
time	pelvis_tilt	pelvis_list	pelvis_rotation	pelvis_tx	pelvis_ty	pelvis_tz	hip_flexion_r	hip_adduction_r	hip_rotation_r	knee_angle_r	ankle_angle_r	subtalar_angle_r	mtp_angle_r	hip_flexion_l	hip_adduction_l	hip_rotation_l	knee_angle_l	ankle_angle_l	subtalar_angle_l	mtp_angle_l	lumbar_extension	lumbar_bending	lumbar_rotation	arm_flex_r	arm_add_r	arm_rot_r	elbow_flex_r	pro_sup_r	wrist_flex_r	wrist_dev_r	arm_flex_l	arm_add_l	arm_rot_l	elbow_flex_l	pro_sup_l	wrist_flex_l	wrist_dev_l
0.002	-0.114454	0.0583325	-0.057225	0.135683	1.06751	0.00822192	-0.0602799	-0.133167	-0.159923	0.686453	-0.192619	0.00387392	0.167258	0.456667	-0.0284983	-0.354474	0.32569	-0.186735	0.193315	0.156389	-0.165627	-0.160775	0.173707	0.0635486	-0.362297	0.102541	1.94767	1.16616	-0.0113665	0.0980842	-0.539198	-0.102536	-0.224207	1.9785	1.1628	0.0460554	0.102098
0.00299868	-0.113861	0.0586126	-0.0575786	0.135641	1.0669	0.00807303	-0.0576761	-0.133987	-0.158532	0.692968	-0.190885	0.00295181	0.16669	0.456657	-0.0282673	-0.353869	0.330996	-0.180854	0.191663	0.153492	-0.166389	-0.16115	0.173225	0.061238	-0.361865	0.101236	1.94567	1.16637	-0.011344	0.0980639	-0.536768	-0.104175	-0.223476	1.97793	1.16267	0.0460257	0.10208
0.00399737	-0.113268	0.0588929	-0.0579324	0.135597	1.06628	0.00792401	-0.0550726	-0.134808	-0.15714	0.699483	-0.189151	0.00202968	0.166123	0.456646	-0.0280363	-0.353263	0.336301	-0.174973	0.190011	0.150596	-0.167153	-0.161525	0.172742	0.0589274	-0.361432	0.099932	1.94367	1.16658	-0.0113216	0.0980436	-0.534337	-0.105813	-0.222746	1.97735	1.16254	0.045996	0.102062
0.00499605	-0.112676	0.0591733	-0.0582862	0.135552	1.06565	0.00777489	-0.0524694	-0.135628	-0.155749	0.705998	-0.187417	0.00110752	0.165556	0.456634	-0.0278053	-0.352657	0.341607	-0.169092	0.18836	0.1477	-0.167916	-0.1619	0.17226	0.0566169	-0.361	0.0986275	1.94167	1.16679	-0.0112991	0.0980233	-0.531906	-0.107452	-0.222015	1.97678	1.16241	0.0459664	0.102044
0.00599474	-0.112085	0.0594538	-0.0586401	0.135507	1.06501	0.0076257	-0.0498668	-0.136449	-0.154358	0.712512	-0.185683	0.000185277	0.164988	0.456623	-0.0275742	-0.352051	0.346912	-0.16321	0.186708	0.144804	-0.168681	-0.162274	0.171777	0.0543064	-0.360568	0.0973232	1.93967	1.167	-0.0112767	0.098003	-0.529476	-0.109091	-0.221285	1.9762	1.16227	0.0459367	0.102026
0.00699342	-0.111495	0.0597345	-0.0589939	0.13546	1.06436	0.00747645	-0.0472647	-0.137269	-0.152968	0.719027	-0.183949	-0.000737088	0.164421	0.45661	-0.0273432	-0.351446	0.352218	-0.157329	0.185058	0.141908	-0.169446	-0.162649	0.171294	0.051996	-0.360135	0.0960189	1.93767	1.16721	-0.0112542	0.0979827	-0.527045	-0.11073	-0.220555	1.97563	1.16214	0.045907	0.102008
0.00799211	-0.110906	0.0600152	-0.0593475	0.135413	1.0637	0.00732716	-0.0446636	-0.13809	-0.151577	0.725541	-0.182215	-0.00165964	0.163854	0.456596	-0.0271122	-0.35084	0.357524	-0.151447	0.183408	0.139013	-0.170212	-0.163024	0.17081	0.0496858	-0.359702	0.0947147	1.93567	1.16742	-0.0112318	0.0979624	-0.524614	-0.112369	-0.219825	1.97506	1.16201	0.0458774	0.101989
0.00899079	-0.110317	0.0602961	-0.0597009	0.135364	1.06303	0.00717787	-0.0420634	-0.13891	-0.150188	0.732055	-0.180481	-0.00258246	0.163286	0.456581	-0.0268811	-0.350234	0.362829	-0.145565	0.181759	0.136117	-0.17098	-0.163398	0.170325	0.0473757	-0.359268	0.0934106	1.93367	1.16763	-0.0112094	0.0979421	-0.522182	-0.114009	-0.219095	1.97449	1.16188	0.0458477	0.101971
0.00998947	-0.109728	0.060577	-0.060054	0.135314	1.06234	0.0070286	-0.0394646	-0.13973	-0.148799	0.738568	-0.178747	-0.00350562	0.162719	0.456563	-0.0266501	-0.349629	0.368134	-0.139682	0.180112	0.133222	-0.171749	-0.163773	0.169839	0.0450659	-0.358834	0.0921068	1.93166	1.16784	-0.0111869	0.0979218	-0.519751	-0.115649	-0.218366	1.97391	1.16174	0.045818	0.101953
0.0109882	-0.109139	0.0608581	-0.0604065	0.135264	1.06165	0.00687938	-0.0368674	-0.140549	-0.147412	0.74508	-0.177014	-0.00442924	0.162151	0.456544	-0.026419	-0.349023	0.373439	-0.133799	0.178467	0.130327	-0.17252	-0.164148	0.169352	0.0427564	-0.358399	0.0908033	1.92966	1.16805	-0.0111645	0.0979015	-0.517319	-0.117289	-0.217637	1.97334	1.16161	0.0457884	0.101935
0.0119868	-0.10855	0.0611393	-0.0607583	0.135212	1.06094	0.00673024	-0.0342721	-0.141369	-0.146026	0.751591	-0.17528	-0.00535341	0.161583	0.456521	-0.0261878	-0.348417	0.378743	-0.127915	0.176825	0.127433	-0.173293	-0.164523	0.168862	0.0404473	-0.357963	0.0895002	1.92765	1.16826	-0.011142	0.0978813	-0.514887	-0.118931	-0.216909	1.97277	1.16148	0.0457587	0.101917
0.0129855	-0.10796	0.0614207	-0.0611093	0.13516	1.06023	0.0065812	-0.0316792	-0.142188	-0.144642	0.7581	-0.173547	-0.00627825	0.161015	0.456496	-0.0259567	-0.347812	0.384046	-0.12203	0.175185	0.124539	-0.174069	-0.164898	0.168371	0.0381387	-0.357526	0.0881975	1.92565	1.16847	-0.0111196	0.097861	-0.512454	-0.120573	-0.216182	1.9722	1.16134	0.045729	0.101899
0.0139842	-0.107369	0.0617022	-0.0614592	0.135106	1.05951	0.00643229	-0.029089	-0.143007	-0.14326	0.764607	-0.171814	-0.00720389	0.160447	0.456466	-0.0257254	-0.347207	0.389349	-0.116145	0.17355	0.121646	-0.174848	-0.165274	0.167877	0.0358307	-0.357087	0.0868954	1.92364	1.16868	-0.0110971	0.0978407	-0.51002	-0.122215	-0.215456	1.97163	1.16121	0.0456994	0.10188
0.0149829	-0.106776	0.0619839	-0.0618079	0.135052	1.05878	0.00628353	-0.026502	-0.143825	-0.141881	0.771112	-0.170081	-0.00813046	0.159879	0.456432	-0.025494	-0.346601	0.39465	-0.110258	0.171918	0.118755	-0.175631	-0.165649	0.16738	0.0335234	-0.356646	0.0855939	1.92163	1.16889	-0.0110747	0.0978204	-0.507586	-0.123859	-0.214731	1.97106	1.16108	0.0456697	0.101862
0.0159816	-0.106182	0.0622658	-0.0621552	0.134996	1.05804	0.00613494	-0.0239186	-0.144643	-0.140504	0.777615	-0.168349	-0.00905809	0.15931	0.456392	-0.0252625	-0.345997	0.39995	-0.104371	0.170292	0.115864	-0.176417	-0.166026	0.166879	0.031217	-0.356204	0.0842933	1.91962	1.1691	-0.0110523	0.0978001	-0.505152	-0.125504	-0.214008	1.97049	1.16095	0.04564	0.101844
0.0169803	-0.105585	0.062548	-0.0625009	0.13494	1.05729	0.00598652	-0.0213392	-0.14546	-0.13913	0.784114	-0.166617	-0.00998694	0.158741	0.456346	-0.0250307	-0.345392	0.405248	-0.098483	0.168672	0.112975	-0.177208	-0.166402	0.166375	0.0289116	-0.355759	0.0829936	1.9176	1.16931	-0.0110298	0.0977798	-0.502716	-0.127151	-0.213286	1.96992	1.16081	0.0456104	0.101826
0.0179789	-0.104986	0.0628305	-0.0628448	0.134882	1.05653	0.00583828	-0.0187645	-0.146277	-0.137761	0.790611	-0.164885	-0.0109171	0.158172	0.456293	-0.0247987	-0.344788	0.410544	-0.0925941	0.167058	0.110088	-0.178005	-0.166779	0.165866	0.0266073	-0.355312	0.081695	1.91558	1.16952	-0.0110074	0.0977595	-0.500279	-0.128798	-0.212566	1.96936	1.16068	0.0455807	0.101808
0.0189776	-0.104383	0.0631133	-0.0631866	0.134823	1.05576	0.00569024	-0.0161949	-0.147094	-0.136395	0.797103	-0.163154	-0.0118488	0.157602	0.456233	-0.0245664	-0.344184	0.415837	-0.0867042	0.165451	0.107203	-0.178806	-0.167157	0.165352	0.0243043	-0.354863	0.0803975	1.91356	1.16973	-0.0109849	0.0977392	-0.497842	-0.130448	-0.211847	1.96879	1.16055	0.045551	0.10179
0.0199763	-0.103777	0.0633965	-0.0635263	0.134764	1.05499	0.0055424	-0.013631	-0.14791	-0.135034	0.803591	-0.161423	-0.0127822	0.157032	0.456164	-0.0243338	-0.343581	0.421128	-0.0808136	0.163852	0.10432	-0.179614	-0.167535	0.164832	0.0220028	-0.35441	0.0791015	1.91154	1.16994	-0.0109625	0.0977189	-0.495403	-0.132099	-0.211131	1.96823	1.16041	0.0455214	0.101771
